<?xml version="1.0" standalone="no"?>
<!DOCTYPE svg PUBLIC "-//W3C//DTD SVG 20010904//EN"
 "http://www.w3.org/TR/2001/REC-SVG-20010904/DTD/svg10.dtd">
<svg version="1.0" xmlns="http://www.w3.org/2000/svg"
 width="1000.000000pt" height="1000.000000pt" viewBox="0 0 1000.000000 1000.000000"
 preserveAspectRatio="xMidYMid meet">
<metadata>
Created by potrace 1.11, written by Peter Selinger 2001-2013
</metadata>
<g transform="translate(0.000000,1000.000000) scale(0.100000,-0.100000)"
fill="#000000" stroke="none">
<path d="M4830 9074 c-397 -26 -640 -66 -955 -156 -1492 -426 -2622 -1680
-2890 -3208 -44 -255 -58 -423 -58 -710 0 -341 24 -569 94 -890 159 -726 532
-1413 1063 -1959 616 -631 1425 -1047 2296 -1181 225 -34 361 -44 625 -43 281
0 453 14 703 58 1532 269 2790 1403 3212 2897 180 635 204 1295 71 1944 -125
608 -393 1185 -784 1687 -446 571 -1044 1017 -1721 1282 -349 137 -706 224
-1063 259 -150 15 -492 27 -593 20z m5 -464 c3 -5 2 -10 -4 -10 -5 0 -13 5
-16 10 -3 6 -2 10 4 10 5 0 13 -4 16 -10z m-605 -211 c0 -11 -4 -18 -10 -14
-5 3 -7 12 -3 20 7 21 13 19 13 -6z m620 -427 c0 -4 -12 -43 -26 -87 -27 -82
-59 -152 -100 -217 -17 -27 -24 -52 -24 -90 0 -149 -57 -369 -128 -497 -45
-82 -146 -189 -210 -224 -63 -34 -215 -71 -263 -63 -33 5 -37 3 -57 -32 -65
-116 -180 -189 -313 -199 -66 -5 -77 -3 -101 16 -54 43 -59 125 -27 417 23
202 21 283 -7 248 -38 -51 -63 -178 -94 -494 -17 -173 -34 -323 -38 -333 -16
-40 -312 -174 -326 -148 -3 6 8 119 64 636 55 518 70 668 67 671 -2 2 -27
-103 -55 -234 -28 -130 -99 -453 -157 -717 -58 -264 -105 -482 -105 -485 0
-10 -257 -130 -292 -136 -36 -6 -37 -5 -42 28 -5 27 -54 547 -57 598 -1 16 -6
-5 -105 -460 -36 -162 -67 -302 -69 -310 -6 -21 -240 -137 -292 -145 -25 -4
-43 -3 -43 3 0 5 -11 130 -25 278 -14 148 -36 388 -50 534 -14 146 -27 285
-31 309 l-6 45 -30 -49 c-71 -115 -112 -294 -90 -402 6 -32 14 -68 18 -81 5
-18 1 -24 -27 -36 -51 -21 -155 -39 -183 -32 -55 14 -79 124 -52 240 61 260
356 609 578 685 96 33 107 34 112 9 5 -22 39 -421 52 -598 16 -221 11 -235
113 281 51 261 95 479 97 486 5 18 212 119 261 128 l42 7 5 -44 c3 -24 15
-149 25 -278 21 -248 34 -398 37 -415 1 -5 3 -21 4 -35 1 -14 45 191 98 455
l97 480 53 29 c30 15 76 34 103 41 55 15 58 11 39 -54 -5 -19 -8 -36 -7 -38 2
-2 55 32 118 76 78 54 129 82 162 88 56 13 54 33 28 -209 l-17 -168 21 19 c48
44 155 81 237 81 108 0 130 -105 88 -425 -20 -154 -26 -275 -12 -275 4 0 18
17 31 38 22 32 26 53 32 169 17 295 89 520 217 679 85 106 177 163 306 191 71
15 79 15 111 0 20 -9 41 -28 47 -42 15 -34 24 -31 38 10 13 38 32 52 100 71
56 15 60 16 60 6z m-2373 -28 c-3 -3 -12 -4 -19 -1 -8 3 -5 6 6 6 11 1 17 -2
13 -5z m4019 -99 c36 -56 25 -158 -32 -281 -22 -46 -84 -154 -99 -172 -1 -1
-26 -8 -54 -16 -69 -18 -72 -9 -32 95 33 85 33 99 0 99 -34 0 -69 44 -69 87 0
43 32 119 58 140 44 35 67 47 115 59 78 18 95 17 113 -11z m-4145 -178 l-23
-22 17 28 c10 15 20 25 23 22 3 -3 -5 -16 -17 -28z m3077 -483 c34 -38 31
-123 -7 -190 -34 -59 -65 -81 -135 -100 -102 -27 -147 -16 -166 42 -22 66 8
160 68 218 36 33 142 67 187 60 17 -3 40 -17 53 -30z m715 -4 c53 -42 58 -126
27 -410 -16 -147 -18 -231 -6 -230 0 0 25 7 55 15 l54 14 -6 -54 c-12 -113
-99 -219 -205 -249 -86 -24 -143 -21 -170 7 -47 50 -51 114 -26 389 10 101 13
193 9 215 l-8 38 -18 -40 c-30 -66 -47 -169 -64 -405 -10 -124 -19 -234 -20
-245 -2 -11 -4 -43 -4 -71 l-1 -51 -72 -38 c-40 -21 -91 -48 -113 -60 -22 -13
-57 -26 -79 -30 -25 -4 -54 -21 -85 -49 -61 -57 -115 -83 -200 -98 -67 -11
-72 -11 -100 10 l-30 22 -22 -44 c-53 -107 -190 -226 -285 -247 -30 -7 -58
-17 -61 -23 -4 -5 -14 -104 -24 -219 -12 -140 -22 -214 -31 -222 -135 -120
-209 -175 -252 -186 -26 -6 -49 -9 -52 -7 -2 3 5 115 16 248 11 134 18 245 16
247 -2 2 -13 -11 -26 -29 -38 -57 -157 -134 -220 -144 -20 -3 -42 -9 -47 -13
-6 -3 -18 -103 -28 -221 -9 -118 -20 -218 -24 -221 -37 -34 -192 -159 -211
-172 -14 -8 -42 -19 -62 -22 -38 -7 -38 -7 -38 26 0 19 7 108 15 199 8 91 15
177 15 192 l0 28 -44 -34 c-50 -38 -164 -71 -222 -64 -33 4 -38 1 -60 -34 -63
-99 -167 -166 -273 -175 -32 -3 -71 -3 -85 1 -36 9 -84 78 -92 132 -10 70 -21
43 -28 -73 -13 -213 -7 -197 -99 -248 -80 -46 -183 -82 -195 -70 -6 6 -34 111
-108 408 -20 81 -38 146 -40 144 -2 -2 -17 -160 -33 -351 -16 -191 -31 -349
-33 -351 -2 -2 -50 -29 -108 -60 -97 -51 -185 -83 -198 -70 -3 2 8 165 24 360
16 195 27 355 24 355 -3 -1 -30 -9 -60 -20 -30 -11 -81 -19 -112 -20 -83 0
-93 19 -92 165 1 96 5 121 32 200 92 260 302 467 515 506 41 8 71 9 76 3 4 -5
24 -79 44 -164 69 -291 95 -395 96 -385 5 49 51 675 51 692 0 18 21 33 105 78
90 49 202 91 212 81 2 -1 -11 -162 -27 -357 -16 -195 -30 -365 -29 -379 0 -14
13 13 28 60 77 238 200 382 364 427 31 9 57 21 57 27 0 11 40 34 180 106 30
15 74 31 98 35 l43 7 -6 -59 c-25 -249 -53 -657 -46 -675 8 -21 9 -20 29 17
33 67 41 112 62 366 11 134 22 267 24 294 3 28 8 85 12 127 l6 78 52 29 c113
64 153 84 201 97 63 17 65 17 65 -1 0 -12 12 -8 53 14 58 33 131 53 192 52 48
0 55 9 55 76 0 41 5 57 22 73 12 11 26 20 30 20 5 0 43 20 86 44 42 24 93 47
112 51 19 4 40 12 47 17 16 13 34 1 26 -18 -4 -11 11 -6 48 15 56 31 181 66
208 58 9 -3 24 -8 34 -12 15 -6 17 -1 17 42 l0 49 108 60 c95 54 197 93 209
80 2 -2 -7 -147 -22 -323 -14 -175 -25 -343 -23 -373 l3 -55 27 45 c57 94 61
121 101 619 13 153 15 165 38 182 36 27 222 120 240 119 8 0 26 12 40 26 79
84 261 132 322 84z m1116 -725 c248 -35 474 -118 669 -248 367 -242 573 -447
687 -682 64 -131 85 -218 85 -345 1 -159 -38 -279 -134 -413 -60 -84 -219
-237 -247 -237 -4 0 -22 24 -39 53 -52 84 -205 271 -329 402 -126 133 -281
254 -454 357 -107 64 -279 148 -303 148 -8 0 -33 -12 -55 -26 -23 -14 -43 -23
-46 -21 -2 3 -10 27 -17 54 -14 55 -12 54 -201 103 -151 39 -280 60 -412 67
l-113 6 0 26 c0 58 33 221 61 306 86 256 273 416 534 455 84 13 199 11 314 -5z
m-5344 -125 c-3 -5 -16 -10 -28 -10 -18 0 -19 2 -7 10 20 13 43 13 35 0z
m4642 -795 c388 -55 817 -265 1042 -512 109 -118 136 -207 126 -403 -12 -226
-52 -385 -140 -561 -26 -50 -45 -92 -43 -94 2 -1 40 -5 86 -8 l83 -5 43 86
c97 194 163 404 187 587 l11 95 29 -21 c78 -55 181 -174 232 -269 111 -203
118 -411 20 -604 -102 -202 -326 -411 -643 -603 -268 -162 -714 -364 -1100
-498 -177 -61 -374 -125 -377 -122 -1 2 39 20 90 42 639 267 1126 673 1450
1209 27 43 46 80 43 83 -2 3 -41 8 -85 12 l-80 7 -67 -94 c-440 -615 -1417
-1187 -2792 -1637 -96 -31 -175 -55 -177 -53 -15 15 249 849 416 1313 403
1126 757 1781 1073 1987 33 21 78 43 100 49 106 30 319 36 473 14z m-5450
-647 c-3 -8 -6 -5 -6 6 -1 11 2 17 5 13 3 -3 4 -12 1 -19z m60 -54 c-3 -3 -12
-4 -19 -1 -8 3 -5 6 6 6 11 1 17 -2 13 -5z m3803 -791 c0 -5 -4 -15 -10 -23
-11 -18 -25 -7 -17 15 6 15 27 21 27 8z m-2819 -1130 c-12 -20 -14 -14 -5 12
4 9 9 14 11 11 3 -2 0 -13 -6 -23z m-37 -88 c3 -8 1 -15 -4 -15 -6 0 -10 7
-10 15 0 8 2 15 4 15 2 0 6 -7 10 -15z m4706 -172 c0 -24 -4 -43 -8 -43 -5 0
-7 13 -4 30 2 16 -1 44 -7 62 -10 30 -9 31 4 14 8 -11 15 -39 15 -63z m-295
-117 c36 -71 47 -187 22 -221 -9 -11 -17 -18 -19 -15 -22 28 -159 252 -156
255 11 12 95 44 108 42 8 -1 28 -29 45 -61z m-167 -149 c57 -83 144 -210 193
-281 49 -71 87 -132 84 -134 -7 -7 -212 104 -303 165 -135 90 -342 306 -317
331 5 5 218 70 235 71 3 0 51 -68 108 -152z m-739 19 c84 -336 -333 -643
-1224 -901 -121 -35 -378 -95 -383 -90 -3 3 39 59 93 125 197 244 567 600 624
600 89 0 502 146 762 269 46 21 91 40 100 40 12 1 20 -13 28 -43z m621 -376
c0 -5 -4 -10 -10 -10 -5 0 -10 5 -10 10 0 6 5 10 10 10 6 0 10 -4 10 -10z
m-2140 -840 c-6 -11 -13 -20 -16 -20 -2 0 0 9 6 20 6 11 13 20 16 20 2 0 0 -9
-6 -20z m430 -220 c0 -5 -4 -10 -10 -10 -5 0 -10 5 -10 10 0 6 5 10 10 10 6 0
10 -4 10 -10z"/>
<path d="M4426 7731 c-34 -66 -68 -167 -87 -261 -39 -193 -35 -434 7 -399 45
37 102 230 117 392 5 46 3 57 -9 57 -37 0 -42 113 -8 165 12 18 14 31 7 52
l-10 28 -17 -34z"/>
<path d="M4802 6358 c-31 -50 -40 -103 -57 -348 -9 -124 -18 -235 -21 -247 -3
-17 0 -21 10 -17 34 13 89 143 112 262 25 130 15 382 -16 382 -4 0 -17 -15
-28 -32z"/>
<path d="M4181 6029 c-12 -19 -26 -50 -31 -69 -11 -40 -53 -540 -46 -547 12
-12 69 88 91 160 32 100 45 187 45 302 -1 153 -23 213 -59 154z"/>
<path d="M3396 5618 c-61 -105 -99 -268 -100 -433 -1 -122 6 -175 24 -175 16
0 49 59 65 115 18 62 57 517 45 528 -4 5 -20 -11 -34 -35z"/>
<path d="M2194 5277 c-26 -72 -29 -95 -28 -192 0 -63 5 -122 12 -139 7 -16 14
-27 16 -25 6 7 39 429 34 434 -3 3 -18 -32 -34 -78z"/>
</g>
</svg>
